<svg data-v-fde0c5aa="" xmlns="http://www.w3.org/2000/svg" viewBox="0 0 300 300" class="iconLeft"><!----><defs data-v-fde0c5aa=""><!----></defs><rect data-v-fde0c5aa="" fill="transparent" x="0" y="0" width="300px" height="300px" class="logo-background-square"></rect><defs data-v-fde0c5aa=""><!----></defs><g data-v-fde0c5aa="" id="f2a3dae4-5080-4839-ab6b-08d6ef1087f4" fill="#000000" transform="matrix(5.885698344527595,0,0,5.885698344527595,141.81518137448612,109.80068215917952)"><path d="M0.48 6.62L0.48 1.96L3.46 1.96L3.46 1.96Q5.32 1.96 6.02 3.22L6.02 3.22L6.02 3.22Q6.62 4.20 6.62 6.49L6.62 6.49L6.91 6.49L6.91 8.83L4.01 8.83L4.01 8.56L4.92 8.56L4.92 6.49L4.66 6.49L4.66 5.63L4.66 5.63Q4.66 4.19 4.01 3.79L4.01 3.79L4.01 3.79Q3.64 3.58 2.80 3.58L2.80 3.58L2.40 3.58L2.40 6.44L2.67 6.44L2.67 8.83L0.72 8.83L0.72 6.62L0.48 6.62ZM-0.39 9.13L-0.39 8.83L0.49 8.83L0.49 9.13L2.67 9.13L2.67 9.78L4.01 9.78L4.01 9.13L6.91 9.13L6.91 9.78L4.92 9.78L4.92 11.52L2.67 11.52L2.67 11.73L0.51 11.73L0.51 11.73Q0.48 11.73 0.48 11.70L0.48 11.70L0.48 9.13L-0.39 9.13ZM2.67 9.13L2.67 8.83L4.01 8.83L4.01 9.13L2.67 9.13ZM6.91 9.13L6.91 8.83L8.83 8.83L8.83 9.13L6.91 9.13ZM7.76 6.80L7.76 2.00L12.55 2.00L12.55 3.60L12.55 3.60Q12.55 3.63 12.52 3.63L12.52 3.63L9.67 3.63L9.67 5.74L12.22 5.74L12.22 5.76L12.22 5.76Q12.22 5.84 12.20 6.79L12.20 6.79L12.20 6.79Q12.17 6.79 12.17 6.80L12.17 6.80L12.29 6.80L12.29 7.29L10.08 7.29L10.08 9.29L9.49 9.29L9.49 9.49L10.08 9.49L10.08 10.10L12.58 10.10L12.58 10.32L12.39 10.32L12.39 11.52L9.39 11.52L9.39 11.73L7.97 11.73L7.97 8.24L7.76 8.24L7.76 7.01L6.20 7.01L6.20 6.80L7.76 6.80ZM8.57 6.80L7.77 6.80L7.77 7.01L8.57 7.01L8.57 6.80ZM13.32 1.93L13.32 1.93L15.40 1.93L15.40 1.93Q15.42 2.10 16.19 5.75L16.19 5.75L16.62 5.75L16.62 6.13L16.10 6.13L16.10 5.75L15.37 5.75L15.37 6.13L16.10 6.13L16.10 7.88L16.33 7.88L16.33 8.79L16.91 8.79L16.91 7.45L17.12 7.45L17.12 6.13L17.53 6.13L17.53 5.75L17.21 5.75L17.21 5.75Q17.98 2.10 18.00 1.93L18.00 1.93L20.08 1.93L20.08 1.93Q18.95 6.84 18.95 6.93L18.95 6.93L18.95 8.63L18.38 8.63L18.38 8.97L18.81 8.97L18.81 9.97L18.03 9.97L18.03 11.73L15.60 11.73L15.60 11.73Q15.57 11.73 15.40 10.98L15.40 10.98L16.03 10.98L16.03 10.57L15.33 10.57L15.33 10.57Q15.29 10.57 15.13 9.78L15.13 9.78L15.13 9.78Q15.06 9.54 13.32 1.93Z"></path></g><defs data-v-fde0c5aa=""><linearGradient data-v-fde0c5aa="" gradientTransform="rotate(25)" id="3c32fdc5-f52d-4b8a-bc9b-08f61925e941" x1="0%" y1="0%" x2="100%" y2="0%"><stop data-v-fde0c5aa="" offset="0%" stop-color="#0015D6" stop-opacity="1"></stop><stop data-v-fde0c5aa="" offset="100%" stop-color="#0989FB" stop-opacity="1"></stop></linearGradient></defs><g data-v-fde0c5aa="" id="d2e364d0-8425-497e-acf8-c953af63089f" stroke="none" fill="url(#3c32fdc5-f52d-4b8a-bc9b-08f61925e941)" transform="matrix(2.703742466528389,0,0,2.703742466528389,40,106.74012053554577)"><path d="M16 32c8.837 0 16-7.163 16-16S24.837 0 16 0 0 7.163 0 16s7.163 16 16 16zM14.817 6.421h2v8.886h8.887v2H14.817V6.421zm-5.959.437h2v14.283h14.283v2H8.858V6.858z"></path></g><!----></svg>